# xmcd
#
# Track frame offsets:
#	225
#	31321
#	49619
#	65392
#	87240
#	101658
#	124256
#	137772
#	172534
#	203519
#
# Disc length: 3247
#
# Revision: 1
# Processed by: cddbd v1.5.1PL0 Copyright (c) Steve Scherf et al.
# Submitted via: CDex 1.51
# Normalized: r0:DSETVAR1,TDELIM( - )
#
DISCID=7b0cac0a
DTITLE=Various Artist - Cassic Legends on KLON
DYEAR=1900
DGENRE=Jazz
TTITLE0=Poncho Sanchez - Afro-Cuban Fantasy
TTITLE1=Barney Kessel - On Green Dolphin Street
TTITLE2=Chet Baker - My Heart Stood Still
TTITLE3=Dave Brubeck - It's Deja Vu All Over Again
TTITLE4=Billie Holiday - God Bless The child
TTITLE5=Scott Hamilton - The Red Door
TTITLE6=King Pleasure - Moody's Mood For Love
TTITLE7=John Coltrane - Naima
TTITLE8=Gerald Wilson Orchestra - Cooking On Canary Roy
TTITLE9=Concord All-Stars - Just A Closer Walk With Thee
EXTD=
EXTT0=
EXTT1=
EXTT2=
EXTT3=
EXTT4=
EXTT5=
EXTT6=
EXTT7=
EXTT8=
EXTT9=
PLAYORDER=
